<?xml version="1.0" encoding="UTF-8" standalone="no"?>
<!DOCTYPE svg PUBLIC "-//W3C//DTD SVG 1.1//EN" "http://www.w3.org/Graphics/SVG/1.1/DTD/svg11.dtd">
<svg width="100%" height="100%" viewBox="0 0 1920 900" version="1.1" xmlns="http://www.w3.org/2000/svg" xmlns:xlink="http://www.w3.org/1999/xlink" xml:space="preserve" xmlns:serif="http://www.serif.com/" style="fill-rule:evenodd;clip-rule:evenodd;stroke-linejoin:round;stroke-miterlimit:2;">
    <g transform="matrix(0.455355,-0.213729,0.214812,0.453058,1129.91,56.566)">
        <path d="M589.459,436.626C589.459,385.401 548.005,343.813 496.945,343.813L298.307,343.813C247.247,343.813 205.793,385.401 205.793,436.626L205.793,622.251C205.793,673.476 247.247,715.064 298.307,715.064L496.945,715.064C548.005,715.064 589.459,673.476 589.459,622.251L589.459,436.626Z" style="fill:rgb(255,0,190);fill-opacity:0.53;"/>
    </g>
    <g transform="matrix(0.370705,0.123526,-0.121405,0.36914,1057.87,296.851)">
        <path d="M589.459,436.626C589.459,385.401 548.101,343.813 497.158,343.813L298.094,343.813C247.152,343.813 205.793,385.401 205.793,436.626L205.793,622.251C205.793,673.476 247.152,715.064 298.094,715.064L497.158,715.064C548.101,715.064 589.459,673.476 589.459,622.251L589.459,436.626Z" style="fill:rgb(255,0,190);fill-opacity:0.53;"/>
    </g>
    <g transform="matrix(0.370705,0.123526,-0.121405,0.36914,1104.1,366.145)">
        <path d="M589.459,436.626C589.459,385.401 548.101,343.813 497.158,343.813L298.094,343.813C247.152,343.813 205.793,385.401 205.793,436.626L205.793,622.251C205.793,673.476 247.152,715.064 298.094,715.064L497.158,715.064C548.101,715.064 589.459,673.476 589.459,622.251L589.459,436.626Z" style="fill:rgb(255,4,0);fill-opacity:0.53;"/>
    </g>
    <g transform="matrix(0.770001,0,0,0.807826,99.459,-45.5158)">
        <path d="M815.247,501.701C815.247,468.485 786.956,441.519 752.109,441.519L625.742,441.519C590.895,441.519 562.604,468.485 562.604,501.701L562.604,622.064C562.604,655.28 590.895,682.246 625.742,682.246L752.109,682.246C786.956,682.246 815.247,655.28 815.247,622.064L815.247,501.701Z" style="fill:rgb(0,255,95);fill-opacity:0.56;"/>
    </g>
    <g transform="matrix(0.672053,-0.317039,0.32305,0.684794,58.4025,127.754)">
        <path d="M589.459,436.626C589.459,385.401 547.083,343.813 494.887,343.813L300.365,343.813C248.17,343.813 205.793,385.401 205.793,436.626L205.793,622.251C205.793,673.476 248.17,715.064 300.365,715.064L494.887,715.064C547.083,715.064 589.459,673.476 589.459,622.251L589.459,436.626Z" style="fill:rgb(255,200,0);fill-opacity:0.71;"/>
    </g>
    <g transform="matrix(0.50348,0,0,0.50094,1202.99,-34.1054)">
        <path d="M815.247,501.701C815.247,468.485 788.417,441.519 755.369,441.519L622.482,441.519C589.434,441.519 562.604,468.485 562.604,501.701L562.604,622.064C562.604,655.28 589.434,682.246 622.482,682.246L755.369,682.246C788.417,682.246 815.247,655.28 815.247,622.064L815.247,501.701Z" style="fill:rgb(0,241,255);fill-opacity:0.53;"/>
    </g>
</svg>
