<?xml version="1.0" encoding="UTF-8" standalone="no"?><!DOCTYPE svg PUBLIC "-//W3C//DTD SVG 1.1//EN" "http://www.w3.org/Graphics/SVG/1.1/DTD/svg11.dtd"><svg width="100%" height="100%" viewBox="0 0 3750 3750" version="1.1" xmlns="http://www.w3.org/2000/svg" xmlns:xlink="http://www.w3.org/1999/xlink" xml:space="preserve" xmlns:serif="http://www.serif.com/" style="fill-rule:evenodd;clip-rule:evenodd;stroke-linecap:square;stroke-miterlimit:1.5;"><ellipse cx="1909.02" cy="1842" rx="1526.45" ry="1537.96"/><g transform="matrix(0.992678,0,0,1,-1.79105,0)"><g transform="matrix(135.576,0,0,135.576,2494.9,2962.43)"></g><text x="1463.17px" y="2962.43px" style="font-family:'Avenir-Black', 'Avenir', sans-serif;font-weight:800;font-size:135.576px;fill:#fff;">- WEB DESIGN -</text></g><ellipse cx="1913.14" cy="1837.99" rx="1430.08" ry="1420.07" style="fill:none;stroke:#fff;stroke-width:27.08px;"/><g transform="matrix(1,0,0,0.788254,0,-29.1531)"><g transform="matrix(2603.51,0,0,2603.51,1359.24,3233.97)"></g><text x="455.824px" y="3233.97px" style="font-family:'BodoniOrnamentsITCTT', 'Bodoni Ornaments';font-size:2603.51px;fill:#fff;">J</text></g><path d="M1206.45,1257.46l417.331,-0l544.602,711.979l0,-711.979l421.277,-0l0,1287.01l-421.277,-0l-541.642,-706.712l0,706.712l-420.291,-0l0,-1287.01Z" style="fill:#fff;"/><g transform="matrix(-1,0,0,0.791747,10086.9,-26.0345)"><g transform="matrix(2603.51,0,0,2603.51,7602.01,3246.64)"></g><text x="6698.59px" y="3246.64px" style="font-family:'BodoniOrnamentsITCTT', 'Bodoni Ornaments';font-size:2603.51px;fill:#fff;">J</text></g></svg>